<svg width="28" height="28" viewBox="0 0 28 28" fill="none" xmlns="http://www.w3.org/2000/svg">
<path d="M16.2618 3.01221C17.8963 3.01221 19.4076 3.88149 20.2295 5.29444L24.1002 11.9498C24.9302 13.3764 24.9302 15.1386 24.1002 16.5652L20.2295 23.2206C19.4076 24.6335 17.8963 25.5028 16.2618 25.5028H8.46089C6.82633 25.5028 5.3151 24.6335 4.49329 23.2206L0.622308 16.5652C-0.207437 15.1386 -0.207435 13.3764 0.62231 11.9498L4.49329 5.29444C5.3151 3.88149 6.82633 3.01221 8.46089 3.01221H16.2618Z" fill="#20AD96"/>
<path d="M7.83154 19.4784L10.3508 16.9592H16.229C16.4517 16.9592 16.6653 16.8707 16.8228 16.7132C16.9803 16.5557 17.0687 16.3421 17.0687 16.1194V11.081C17.0687 10.8582 16.9803 10.6447 16.8228 10.4872C16.6653 10.3297 16.4517 10.2412 16.229 10.2412H8.67128C8.44857 10.2412 8.23499 10.3297 8.07749 10.4872C7.92002 10.6447 7.83154 10.8582 7.83154 11.081V19.4784Z" stroke="white" stroke-width="1.60647" stroke-linecap="round" stroke-linejoin="round"/>
</svg>
